<?xml version="1.0" standalone="no"?>
<!DOCTYPE svg PUBLIC "-//W3C//DTD SVG 1.1//EN" "http://www.w3.org/Graphics/SVG/1.1/DTD/svg11.dtd">
<svg width="240" height="48" version="1.1" xmlns="http://www.w3.org/2000/svg">
 <desc>Zint Generated Symbol</desc>
 <g id="barcode" fill="#79716B">
  <path d="M0 0h16v48h-16ZM18 0h2v48h-2ZM22 0h2v48h-2ZM26 0h2v48h-2ZM34 0h10v6h-10ZM46 0h2v6h-2ZM50 0h2v6h-2ZM54 0h10v6h-10ZM68 0h6v6h-6ZM76 0h2v6h-2ZM80 0h4v6h-4ZM88 0h8v6h-8ZM102 0h4v6h-4ZM114 0h4v12h-4ZM120 0h4v6h-4ZM130 0h4v6h-4ZM136 0h2v12h-2ZM140 0h4v6h-4ZM146 0h6v6h-6ZM154 0h4v6h-4ZM170 0h10v6h-10ZM182 0h2v6h-2ZM186 0h2v6h-2ZM190 0h10v6h-10ZM204 0h14v48h-14ZM220 0h2v48h-2ZM228 0h2v48h-2ZM232 0h2v48h-2ZM238 0h2v48h-2ZM34 6h12v6h-12ZM48 6h2v6h-2ZM52 6h2v6h-2ZM60 6h6v6h-6ZM68 6h4v12h-4ZM76 6h4v6h-4ZM84 6h8v6h-8ZM98 6h2v6h-2ZM102 6h6v6h-6ZM110 6h2v6h-2ZM130 6h2v6h-2ZM144 6h2v6h-2ZM156 6h8v6h-8ZM166 6h2v6h-2ZM170 6h8v6h-8ZM180 6h2v6h-2ZM184 6h2v6h-2ZM190 6h2v6h-2ZM34 12h2v6h-2ZM38 12h2v6h-2ZM42 12h2v6h-2ZM48 12h8v6h-8ZM74 12h8v6h-8ZM86 12h2v6h-2ZM90 12h4v6h-4ZM102 12h12v6h-12ZM118 12h2v12h-2ZM122 12h4v6h-4ZM132 12h2v6h-2ZM136 12h4v6h-4ZM142 12h6v6h-6ZM154 12h2v18h-2ZM160 12h6v6h-6ZM170 12h6v6h-6ZM178 12h2v6h-2ZM182 12h2v6h-2ZM190 12h12v6h-12ZM34 18h4v6h-4ZM40 18h2v6h-2ZM44 18h8v6h-8ZM56 18h10v6h-10ZM68 18h2v6h-2ZM72 18h8v6h-8ZM86 18h8v6h-8ZM98 18h2v6h-2ZM102 18h6v6h-6ZM110 18h6v6h-6ZM126 18h2v6h-2ZM136 18h2v30h-2ZM144 18h2v6h-2ZM166 18h2v6h-2ZM170 18h4v6h-4ZM176 18h2v6h-2ZM180 18h8v6h-8ZM192 18h10v6h-10ZM34 24h6v6h-6ZM42 24h2v6h-2ZM46 24h6v6h-6ZM60 24h4v12h-4ZM68 24h6v6h-6ZM80 24h2v6h-2ZM88 24h4v6h-4ZM94 24h2v6h-2ZM102 24h8v6h-8ZM112 24h4v6h-4ZM120 24h6v6h-6ZM130 24h4v6h-4ZM140 24h12v6h-12ZM158 24h4v6h-4ZM170 24h8v6h-8ZM180 24h2v6h-2ZM184 24h6v6h-6ZM194 24h6v6h-6ZM34 30h10v6h-10ZM46 30h2v6h-2ZM50 30h8v6h-8ZM68 30h4v6h-4ZM78 30h10v6h-10ZM92 30h2v6h-2ZM98 30h2v6h-2ZM102 30h6v6h-6ZM112 30h10v6h-10ZM124 30h2v6h-2ZM128 30h4v6h-4ZM148 30h6v6h-6ZM156 30h2v6h-2ZM160 30h4v6h-4ZM170 30h6v12h-6ZM178 30h2v12h-2ZM182 30h10v6h-10ZM194 30h2v6h-2ZM34 36h6v6h-6ZM42 36h2v6h-2ZM48 36h6v6h-6ZM56 36h10v6h-10ZM68 36h10v6h-10ZM82 36h6v6h-6ZM90 36h2v6h-2ZM94 36h6v6h-6ZM102 36h2v12h-2ZM112 36h2v6h-2ZM118 36h4v6h-4ZM124 36h4v6h-4ZM148 36h2v6h-2ZM152 36h2v6h-2ZM162 36h2v6h-2ZM184 36h6v6h-6ZM192 36h10v6h-10ZM34 42h10v6h-10ZM46 42h2v6h-2ZM52 42h2v6h-2ZM56 42h4v6h-4ZM68 42h8v6h-8ZM82 42h4v6h-4ZM88 42h4v6h-4ZM98 42h2v6h-2ZM108 42h4v6h-4ZM118 42h10v6h-10ZM130 42h2v6h-2ZM140 42h8v6h-8ZM150 42h4v6h-4ZM156 42h10v6h-10ZM170 42h2v6h-2ZM174 42h2v6h-2ZM178 42h12v6h-12ZM192 42h6v6h-6Z"/>
 </g>
</svg>
