<?xml version="1.0" standalone="no"?>
<!DOCTYPE svg PUBLIC "-//W3C//DTD SVG 1.1//EN" "http://www.w3.org/Graphics/SVG/1.1/DTD/svg11.dtd">
<svg width="26" height="26" version="1.1" xmlns="http://www.w3.org/2000/svg">
 <desc>Zint Generated Symbol</desc>
 <g id="barcode" fill="#38383f">
  <rect x="0" y="0" width="26" height="26" fill="#FFFFFF00"/>
  <path d="M0 0h14v2h-14ZM16 0h2v2h-2ZM20 0h2v2h-2ZM24 0h2v4h-2ZM0 2h2v10h-2ZM12 2h2v10h-2ZM16 2h4v2h-4ZM4 4h6v6h-6ZM18 4h6v2h-6ZM16 6h2v2h-2ZM20 6h2v2h-2ZM24 6h2v2h-2ZM16 8h4v8h-4ZM22 8h4v2h-4ZM22 10h2v2h-2ZM0 12h14v2h-14ZM22 12h4v2h-4ZM0 16h6v2h-6ZM8 16h4v2h-4ZM14 16h12v2h-12ZM6 18h2v2h-2ZM12 18h2v2h-2ZM20 18h6v2h-6ZM0 20h2v2h-2ZM4 20h4v2h-4ZM10 20h8v2h-8ZM22 20h4v2h-4ZM2 22h2v2h-2ZM6 22h2v4h-2ZM16 22h10v2h-10ZM0 24h2v2h-2ZM10 24h8v2h-8ZM20 24h2v2h-2Z"/>
 </g>
</svg>
